<svg t="1750642870216" class="icon" viewBox="0 0 1024 1024" version="1.1" xmlns="http://www.w3.org/2000/svg" p-id="21901" width="28" height="28"><path d="M793.6 204.8h-307.2c-25.6 0-51.2-20.48-51.2-51.2 0-25.6 20.48-51.2 51.2-51.2h307.2c25.6 0 51.2 20.48 51.2 51.2 0 25.6-25.6 51.2-51.2 51.2zM286.72 327.68L143.36 476.16c-20.48 20.48-20.48 51.2 0 71.68l143.36 143.36c20.48 20.48 51.2 20.48 71.68 0 20.48-20.48 20.48-51.2 0-71.68L250.88 512 358.4 404.48c20.48-20.48 20.48-51.2 0-71.68-20.48-20.48-51.2-20.48-71.68-5.12z" fill="#333C4E" p-id="21902"></path><path d="M624.64 563.2H286.72c-25.6 0-51.2-20.48-51.2-51.2 0-25.6 20.48-51.2 51.2-51.2h343.04c25.6 0 51.2 20.48 51.2 51.2-5.12 30.72-25.6 51.2-56.32 51.2zM793.6 921.6h-307.2c-25.6 0-51.2-20.48-51.2-51.2 0-25.6 20.48-51.2 51.2-51.2h307.2c25.6 0 51.2 20.48 51.2 51.2 0 25.6-25.6 51.2-51.2 51.2z" fill="#333C4E" p-id="21903"></path><path d="M742.4 870.4V153.6c0-25.6 20.48-51.2 51.2-51.2 25.6 0 51.2 20.48 51.2 51.2v716.8c0 25.6-25.6 51.2-51.2 51.2-30.72 0-51.2-25.6-51.2-51.2z" fill="#333C4E" p-id="21904"></path></svg>