<svg t="1750642749650" class="icon" viewBox="0 0 1026 1024" version="1.1" xmlns="http://www.w3.org/2000/svg" p-id="20068" width="28" height="28"><path d="M998.881 349.832l-184.826-90.33L917.622 62.024a35.985 35.985 0 0 0 0-51.198 39.862 39.862 0 0 0-53.393-0.878L749.62 228.052l-159.374-77.529a110.954 110.954 0 0 0-47.688-12.434 57.708 57.708 0 0 0-51.198 25.746l-1.317 2.56C373.017 414.707 34.815 551.553 31.304 552.943a49.809 49.809 0 0 0-29.256 31.231 57.927 57.927 0 0 0 8.777 46.883l3.803 5.998 617.673 367.75a114.319 114.319 0 0 0 56.757 19.164 46.59 46.59 0 0 0 29.695-9.362l1.682-1.463a1050.08 1050.08 0 0 0 302.363-574.3 87.33 87.33 0 0 0-23.844-88.793z m-43.884 82.356a829.56 829.56 0 0 1-31.012 125.948C811.861 505.328 557.331 364.021 473.732 317.43a620.744 620.744 0 0 0 73.14-112.49 65.827 65.827 0 0 1 12.507 4.754c35.254 17.115 300.9 146.281 381.648 185.777l13.458 6.802a107.517 107.517 0 0 1 0 30.207z m-311.36 334.91a35.985 35.985 0 0 0 0.878-51.93 39.862 39.862 0 0 0-53.685-0.804L472.123 825.392a33.572 33.572 0 0 0-3.657 4.023L287.88 721.97l121.706-80.016a36.058 36.058 0 0 0 10.02-51.198 38.106 38.106 0 0 0-24.648-15.14 39.203 39.203 0 0 0-28.451 5.705l-136.48 89.89a36.57 36.57 0 0 0-10.24 10.24L86.086 601.8a1159.937 1159.937 0 0 0 342.225-233.392c86.233 48.2 357.512 198.943 473.147 252.628a929.251 929.251 0 0 1-218.178 334.91 104.372 104.372 0 0 1-14.629-7.313l-133.92-79.65z m0 0" p-id="20069" fill="#333C4E"></path></svg>