<svg xmlns="http://www.w3.org/2000/svg" xmlns:xlink="http://www.w3.org/1999/xlink" width="40" zoomAndPan="magnify" viewBox="0 0 30 30.000001" height="40" preserveAspectRatio="xMidYMid meet" version="1.0"><defs><clipPath id="4db4b784e2"><path d="M 0.484375 0 L 29.515625 0 L 29.515625 29.03125 L 0.484375 29.03125 Z M 0.484375 0 " clip-rule="nonzero"/></clipPath><clipPath id="904dcc9749"><path d="M 2.753906 8.390625 L 27.429688 8.390625 L 27.429688 20.730469 L 2.753906 20.730469 Z M 2.753906 8.390625 " clip-rule="nonzero"/></clipPath><clipPath id="5c7fe20e44"><path d="M 1.117188 19.007812 L 4.746094 19.007812 L 4.746094 22.636719 L 1.117188 22.636719 Z M 1.117188 19.007812 " clip-rule="nonzero"/></clipPath><clipPath id="43d347f9c9"><path d="M 13.367188 6.757812 L 16.996094 6.757812 L 16.996094 10.386719 L 13.367188 10.386719 Z M 13.367188 6.757812 " clip-rule="nonzero"/></clipPath><clipPath id="70c71779c3"><path d="M 24.980469 19.007812 L 28.609375 19.007812 L 28.609375 22.636719 L 24.980469 22.636719 Z M 24.980469 19.007812 " clip-rule="nonzero"/></clipPath></defs><g clip-path="url(#4db4b784e2)"><path fill="#ffffff" d="M 0.484375 0 L 29.515625 0 L 29.515625 29.03125 L 0.484375 29.03125 Z M 0.484375 0 " fill-opacity="1" fill-rule="nonzero"/><path fill="#ffffff" d="M 0.484375 0 L 29.515625 0 L 29.515625 29.03125 L 0.484375 29.03125 Z M 0.484375 0 " fill-opacity="1" fill-rule="nonzero"/></g><g clip-path="url(#904dcc9749)"><path fill="#231f20" d="M 27.425781 20.730469 L 26.519531 20.730469 C 26.519531 14.425781 21.390625 9.300781 15.089844 9.300781 C 8.789062 9.300781 3.664062 14.425781 3.664062 20.730469 L 2.753906 20.730469 C 2.753906 17.433594 4.039062 14.335938 6.367188 12.003906 C 8.699219 9.675781 11.796875 8.390625 15.089844 8.390625 C 18.386719 8.390625 21.484375 9.675781 23.8125 12.003906 C 26.144531 14.335938 27.425781 17.433594 27.425781 20.730469 Z M 27.425781 20.730469 " fill-opacity="1" fill-rule="nonzero"/></g><g clip-path="url(#5c7fe20e44)"><path fill="#000000" d="M 4.746094 20.820312 C 4.746094 21.0625 4.703125 21.292969 4.609375 21.515625 C 4.519531 21.738281 4.386719 21.933594 4.214844 22.105469 C 4.046875 22.273438 3.851562 22.40625 3.628906 22.496094 C 3.40625 22.589844 3.175781 22.636719 2.933594 22.636719 C 2.691406 22.636719 2.460938 22.589844 2.238281 22.496094 C 2.015625 22.40625 1.820312 22.273438 1.652344 22.105469 C 1.480469 21.933594 1.347656 21.738281 1.257812 21.515625 C 1.164062 21.292969 1.117188 21.0625 1.117188 20.820312 C 1.117188 20.582031 1.164062 20.347656 1.257812 20.128906 C 1.347656 19.90625 1.480469 19.707031 1.652344 19.539062 C 1.820312 19.367188 2.015625 19.238281 2.238281 19.144531 C 2.460938 19.054688 2.691406 19.007812 2.933594 19.007812 C 3.175781 19.007812 3.40625 19.054688 3.628906 19.144531 C 3.851562 19.238281 4.046875 19.367188 4.214844 19.539062 C 4.386719 19.707031 4.519531 19.90625 4.609375 20.128906 C 4.703125 20.347656 4.746094 20.582031 4.746094 20.820312 Z M 4.746094 20.820312 " fill-opacity="1" fill-rule="nonzero"/></g><g clip-path="url(#43d347f9c9)"><path fill="#000000" d="M 16.996094 8.574219 C 16.996094 8.8125 16.949219 9.046875 16.859375 9.269531 C 16.765625 9.492188 16.632812 9.6875 16.464844 9.855469 C 16.292969 10.027344 16.097656 10.15625 15.875 10.25 C 15.652344 10.34375 15.421875 10.386719 15.179688 10.386719 C 14.941406 10.386719 14.710938 10.34375 14.488281 10.25 C 14.265625 10.15625 14.070312 10.027344 13.898438 9.855469 C 13.726562 9.6875 13.597656 9.492188 13.503906 9.269531 C 13.414062 9.046875 13.367188 8.8125 13.367188 8.574219 C 13.367188 8.332031 13.414062 8.101562 13.503906 7.878906 C 13.597656 7.65625 13.726562 7.460938 13.898438 7.289062 C 14.070312 7.121094 14.265625 6.988281 14.488281 6.898438 C 14.710938 6.804688 14.941406 6.757812 15.179688 6.757812 C 15.421875 6.757812 15.652344 6.804688 15.875 6.898438 C 16.097656 6.988281 16.292969 7.121094 16.464844 7.289062 C 16.632812 7.460938 16.765625 7.65625 16.859375 7.878906 C 16.949219 8.101562 16.996094 8.332031 16.996094 8.574219 Z M 16.996094 8.574219 " fill-opacity="1" fill-rule="nonzero"/></g><g clip-path="url(#70c71779c3)"><path fill="#000000" d="M 28.609375 20.820312 C 28.609375 21.0625 28.5625 21.292969 28.472656 21.515625 C 28.378906 21.738281 28.246094 21.933594 28.078125 22.105469 C 27.90625 22.273438 27.710938 22.40625 27.488281 22.496094 C 27.265625 22.589844 27.035156 22.636719 26.792969 22.636719 C 26.554688 22.636719 26.324219 22.589844 26.101562 22.496094 C 25.878906 22.40625 25.679688 22.273438 25.511719 22.105469 C 25.339844 21.933594 25.210938 21.738281 25.117188 21.515625 C 25.027344 21.292969 24.980469 21.0625 24.980469 20.820312 C 24.980469 20.582031 25.027344 20.347656 25.117188 20.128906 C 25.210938 19.90625 25.339844 19.707031 25.511719 19.539062 C 25.679688 19.367188 25.878906 19.238281 26.101562 19.144531 C 26.324219 19.054688 26.554688 19.007812 26.792969 19.007812 C 27.035156 19.007812 27.265625 19.054688 27.488281 19.144531 C 27.710938 19.238281 27.90625 19.367188 28.078125 19.539062 C 28.246094 19.707031 28.378906 19.90625 28.472656 20.128906 C 28.5625 20.347656 28.609375 20.582031 28.609375 20.820312 Z M 28.609375 20.820312 " fill-opacity="1" fill-rule="nonzero"/></g></svg>